<svg xmlns="http://www.w3.org/2000/svg" width="500" height="500" xmlns:v="https://vecta.io/nano"><g transform="matrix(.611247 0 0 .611247 -.000005 .611247)"><path d="M357.4 40.1l-35.1 40.4-9.9 2.9c-41.4 12.2-82.5 33.8-116.9 61.2-14.1 11.3-38.6 35.8-49.9 49.9C102.2 249 76.8 313 71.4 381.2l-.6 8.8h32.5 32.5l.7-6.3c5.8-54.7 22.8-98.3 54.9-141.2 10.9-14.5 36.1-40 50.1-50.6 43.1-32.7 89.8-51 143.6-56.4l6.7-.6.7-52.2.3-67.6-.3-15.5-35.1 40.5z" fill="#2e7d32"/><path d="M426 102.4v32.4l6.8.7c46 4.6 87.9 19 125.2 43.3 32 20.7 63.2 52.5 83.5 85.2 21.4 34.5 35.1 74.4 39.5 115.7l1.3 11.3h26.2c16.9 0 26.5.4 26.7 1 .2.7 14.4.9 41.6.8l41.3-.3-39.6-34.5-41.3-36c-.9-.8-3.2-6.5-5-12.5-12.6-41.5-33.2-80.5-60.8-115-11.3-14.1-35.8-38.6-49.9-49.9-45-35.9-99.4-60.5-155-70.1-9.7-1.7-33.2-4.5-37.7-4.5H426v32.4zM2.5 425.7c1.7 1.4 19.7 17.1 40 34.8l38.6 34.1c.9 1.1 3 6.6 4.8 12.4 12.3 39.5 32.6 77.4 59.7 111.5 11.3 14.1 35.8 38.6 49.9 49.9 45 35.9 99.4 60.5 155 70.1 10.6 1.8 33.4 4.5 38.8 4.5h3.7v-31.4-31.4l-7.2-.7c-45.7-4.3-88.4-19-125.8-43.3-32-20.7-63.2-52.5-83.5-85.2-21.4-34.4-35.1-74.5-39.5-115.6l-1.2-11.1-39.7-.6L28 423l-28.5.1 3 2.6z" fill="#1b5e20"/><path d="M681 435.2c-4.4 41.4-18.1 81.3-39.5 115.8-20.3 32.7-51.5 64.5-83.5 85.2-37.4 24.3-80.1 39-125.6 43.3l-7.2.7-.7 53.1-.3 68 .3 14.8 18-20.7 36.8-42.3 18.8-21.5 9.2-2.8c40.9-12.6 80.4-33.5 114.2-60.4 14.1-11.3 38.6-35.8 49.9-49.9 43.3-54.4 68.5-117.7 74.1-186.3l.7-8.2h-32-31.9l-1.3 11.2z" fill="#2e7d32"/><path d="M180.896 454.923l390.657-219.845-123.91 376.913-57.44-167.986" fill="#bdbdbd"/></g></svg>